<svg width="87" height="24" viewBox="0 0 87 24" fill="none" xmlns="http://www.w3.org/2000/svg" data-element="Logo" data-source-file="index.tsx"><path d="M1.02295 17.489L13.2844 22.9774L25.5812 17.4822L13.3198 11.987L1.02295 17.489Z" fill="#F4DCC6"></path><path fill-rule="evenodd" clip-rule="evenodd" d="M12.902 11.0535C13.1683 10.9344 13.4727 10.9345 13.7388 11.0538L26.0002 16.549C26.3683 16.7139 26.605 17.0796 26.6048 17.4827C26.6046 17.8858 26.3675 18.2512 25.9992 18.4157L13.7024 23.9109C13.4364 24.0298 13.1323 24.0297 12.8664 23.9107L0.605007 18.4223C0.23689 18.2575 -3.06553e-05 17.892 2.97509e-09 17.4889C3.06612e-05 17.0858 0.237007 16.7203 0.605149 16.5555L12.902 11.0535ZM3.5271 17.4891L13.285 21.8569L23.0777 17.4808L13.3198 13.1076L3.5271 17.4891Z" fill="#F4DCC6"></path><path d="M1.02295 12.0347L13.2844 17.5231L25.5812 12.0279L13.3198 6.53271L1.02295 12.0347Z" fill="#EDC8A7"></path><path fill-rule="evenodd" clip-rule="evenodd" d="M12.902 5.59934C13.1683 5.48022 13.4727 5.48032 13.7388 5.5996L26.0002 11.0948C26.3683 11.2597 26.605 11.6254 26.6048 12.0285C26.6046 12.4316 26.3675 12.797 25.9992 12.9615L13.7024 18.4567C13.4364 18.5756 13.1323 18.5755 12.8664 18.4565L0.605007 12.9681C0.23689 12.8033 -3.06553e-05 12.4378 2.97509e-09 12.0347C3.06612e-05 11.6316 0.237007 11.2661 0.605149 11.1014L12.902 5.59934ZM3.5271 12.035L13.285 16.4027L23.0777 12.0266L13.3198 7.65339L3.5271 12.035Z" fill="#EDC8A7"></path><path d="M1.02295 6.58045L13.2844 12.0688L25.5812 6.57363L13.3198 1.07843L1.02295 6.58045Z" fill="#E2A56C"></path><path fill-rule="evenodd" clip-rule="evenodd" d="M12.902 0.144995C13.1683 0.0258789 13.4727 0.0259725 13.7388 0.145252L26.0002 5.64045C26.3683 5.80539 26.605 6.17103 26.6048 6.57415C26.6046 6.97727 26.3675 7.34266 25.9992 7.5072L13.7024 13.0024C13.4364 13.1213 13.1323 13.1212 12.8664 13.0021L0.605007 7.51377C0.23689 7.34899 -3.06553e-05 6.98346 2.97509e-09 6.58034C3.06612e-05 6.17722 0.237007 5.81173 0.605149 5.64701L12.902 0.144995ZM3.5271 6.58061L13.285 10.9484L23.0777 6.57225L13.3198 2.19905L3.5271 6.58061Z" fill="#E2A56C"></path><path d="M35.5143 7.98334V0H37.076V7.98334H35.5143ZM36.6998 7.98334V6.55774H40.6097V7.98334H36.6998ZM36.6998 4.63034V3.23896H40.0853V4.63034H36.6998ZM36.6998 1.4256V0H40.5641V1.4256H36.6998Z" fill="black"></path><path d="M42.0103 7.98334V2.28095H43.4237L43.5149 3.33019V7.98334H42.0103ZM45.7833 7.98334V5.06372L47.288 4.72158V7.98334H45.7833ZM49.5678 7.98334V5.06372L51.0725 4.72158V7.98334H49.5678ZM45.7833 5.06372C45.7833 4.67596 45.7377 4.37563 45.6465 4.16274C45.5629 3.94985 45.4414 3.79779 45.2818 3.70655C45.1222 3.60771 44.936 3.55829 44.7232 3.55829C44.3357 3.55069 44.0355 3.66854 43.8227 3.91184C43.6175 4.15514 43.5149 4.51629 43.5149 4.99529H43.0134C43.0134 4.38704 43.1008 3.87382 43.2755 3.45565C43.4579 3.02987 43.7087 2.70673 44.0279 2.48624C44.3471 2.25815 44.7232 2.1441 45.1564 2.1441C45.8479 2.1441 46.3761 2.35699 46.7408 2.78276C47.1132 3.20094 47.2956 3.84721 47.288 4.72158L45.7833 5.06372ZM49.5678 5.06372C49.5678 4.67596 49.5222 4.37563 49.431 4.16274C49.3398 3.94985 49.2144 3.79779 49.0548 3.70655C48.9029 3.60771 48.7167 3.55829 48.4963 3.55829C48.1087 3.55069 47.8085 3.66854 47.5958 3.91184C47.3906 4.15514 47.288 4.51629 47.288 4.99529H46.7864C46.7864 4.38704 46.8738 3.87382 47.0486 3.45565C47.231 3.02987 47.4818 2.70673 47.801 2.48624C48.1277 2.25815 48.5077 2.1441 48.9408 2.1441C49.6324 2.1441 50.1605 2.35699 50.5253 2.78276C50.8901 3.20094 51.0725 3.84721 51.0725 4.72158L49.5678 5.06372Z" fill="black"></path><path d="M54.9412 8.1202C54.3788 8.1202 53.8811 7.99475 53.4479 7.74384C53.0147 7.48533 52.6728 7.13178 52.422 6.6832C52.1788 6.23461 52.0572 5.71759 52.0572 5.13215C52.0572 4.5467 52.1826 4.02969 52.4334 3.5811C52.6918 3.13251 53.0413 2.78276 53.4821 2.53186C53.9305 2.27335 54.4434 2.1441 55.021 2.1441C55.5149 2.1441 55.9709 2.27715 56.3888 2.54326C56.8144 2.80177 57.1564 3.18573 57.4148 3.69515C57.6731 4.19696 57.8023 4.80901 57.8023 5.53131H56.2749C56.2825 5.0295 56.2293 4.63034 56.1153 4.33381C56.0089 4.02969 55.8569 3.813 55.6593 3.68374C55.4617 3.54688 55.2299 3.47846 54.964 3.47846C54.6828 3.47846 54.4434 3.53928 54.2458 3.66093C54.0559 3.78258 53.9115 3.96886 53.8127 4.21977C53.7139 4.46307 53.6645 4.7824 53.6645 5.17777C53.6645 5.51991 53.7291 5.80503 53.8583 6.03312C53.9875 6.26122 54.1622 6.43609 54.3826 6.55774C54.603 6.67179 54.8424 6.72882 55.1008 6.72882C55.3971 6.72882 55.6365 6.66419 55.8189 6.53493C56.0089 6.40568 56.1533 6.23841 56.2521 6.03312L57.6655 6.58055C57.4984 6.89989 57.2894 7.1774 57.0386 7.4131C56.7878 7.6412 56.4876 7.81607 56.1381 7.93772C55.7885 8.05937 55.3895 8.1202 54.9412 8.1202ZM53.0375 5.53131L53.0489 4.35662H57.0614V5.53131H53.0375Z" fill="black"></path><path d="M59.8349 4.98389C59.8349 4.36803 59.9527 3.85861 60.1883 3.45565C60.4315 3.05268 60.7392 2.75235 61.1116 2.55467C61.4916 2.35699 61.8867 2.25815 62.2971 2.25815V3.71796C61.9475 3.71796 61.617 3.75977 61.3054 3.84341C61.0014 3.92704 60.7544 4.0639 60.5644 4.25398C60.3745 4.44406 60.2795 4.68736 60.2795 4.98389H59.8349ZM58.7748 7.98334V2.28095H60.2795V7.98334H58.7748Z" fill="black"></path><path d="M65.6587 10.4126C65.2256 10.4126 64.8418 10.3821 64.5074 10.3213C64.1731 10.2605 63.8919 10.1807 63.6639 10.0818C63.4359 9.98298 63.2497 9.88414 63.1054 9.78529L63.6981 8.57639C63.8045 8.63721 63.9451 8.70564 64.1199 8.78168C64.2946 8.86531 64.5036 8.93374 64.7468 8.98696C64.99 9.04779 65.2712 9.0782 65.5903 9.0782C65.8943 9.0782 66.1603 9.01737 66.3883 8.89572C66.6238 8.78168 66.8062 8.5992 66.9354 8.34829C67.0722 8.10499 67.1406 7.79326 67.1406 7.4131V2.28095H68.6453V7.36748C68.6453 8.00615 68.5237 8.55358 68.2805 9.00977C68.0373 9.47357 67.6915 9.82331 67.2432 10.059C66.8024 10.2947 66.2743 10.4126 65.6587 10.4126ZM65.3624 7.82367C64.838 7.82367 64.382 7.70963 63.9945 7.48153C63.6145 7.25344 63.3181 6.9341 63.1054 6.52353C62.8926 6.11296 62.7862 5.62635 62.7862 5.06372C62.7862 4.47067 62.8926 3.95746 63.1054 3.52407C63.3181 3.08309 63.6145 2.74475 63.9945 2.50905C64.382 2.26575 64.838 2.1441 65.3624 2.1441C65.8183 2.1441 66.2135 2.26575 66.5479 2.50905C66.8822 2.74475 67.1406 3.08309 67.323 3.52407C67.5054 3.96506 67.5966 4.48968 67.5966 5.09793C67.5966 5.64536 67.5054 6.12436 67.323 6.53493C67.1406 6.94551 66.8822 7.26484 66.5479 7.49294C66.2135 7.71343 65.8183 7.82367 65.3624 7.82367ZM65.7955 6.55774C66.0539 6.55774 66.2781 6.49312 66.4681 6.36386C66.6656 6.22701 66.8176 6.04453 66.924 5.81643C67.0304 5.58074 67.0836 5.31462 67.0836 5.0181C67.0836 4.71397 67.0266 4.44786 66.9126 4.21977C66.8062 3.99167 66.6542 3.813 66.4567 3.68374C66.2667 3.55449 66.0425 3.48986 65.7841 3.48986C65.5181 3.48986 65.2826 3.55449 65.0774 3.68374C64.8722 3.813 64.7126 3.99167 64.5986 4.21977C64.4846 4.44786 64.4238 4.71397 64.4162 5.0181C64.4238 5.31462 64.4846 5.58074 64.5986 5.81643C64.7126 6.04453 64.8722 6.22701 65.0774 6.36386C65.2902 6.49312 65.5295 6.55774 65.7955 6.55774Z" fill="black"></path><path d="M72.5072 8.1202C71.9449 8.1202 71.4471 7.99475 71.0139 7.74384C70.5808 7.48533 70.2388 7.13178 69.988 6.6832C69.7449 6.23461 69.6233 5.71759 69.6233 5.13215C69.6233 4.5467 69.7487 4.02969 69.9994 3.5811C70.2578 3.13251 70.6074 2.78276 71.0481 2.53186C71.4965 2.27335 72.0095 2.1441 72.587 2.1441C73.081 2.1441 73.5369 2.27715 73.9549 2.54326C74.3804 2.80177 74.7224 3.18573 74.9808 3.69515C75.2392 4.19696 75.3684 4.80901 75.3684 5.53131H73.8409C73.8485 5.0295 73.7953 4.63034 73.6813 4.33381C73.5749 4.02969 73.4229 3.813 73.2253 3.68374C73.0278 3.54688 72.796 3.47846 72.53 3.47846C72.2488 3.47846 72.0095 3.53928 71.8119 3.66093C71.6219 3.78258 71.4775 3.96886 71.3787 4.21977C71.2799 4.46307 71.2305 4.7824 71.2305 5.17777C71.2305 5.51991 71.2951 5.80503 71.4243 6.03312C71.5535 6.26122 71.7283 6.43609 71.9487 6.55774C72.169 6.67179 72.4084 6.72882 72.6668 6.72882C72.9632 6.72882 73.2025 6.66419 73.3849 6.53493C73.5749 6.40568 73.7193 6.23841 73.8181 6.03312L75.2316 6.58055C75.0644 6.89989 74.8554 7.1774 74.6046 7.4131C74.3538 7.6412 74.0537 7.81607 73.7041 7.93772C73.3545 8.05937 72.9556 8.1202 72.5072 8.1202ZM70.6036 5.53131L70.615 4.35662H74.6274V5.53131H70.6036Z" fill="black"></path><path d="M76.3408 7.98334V2.28095H77.7543L77.8455 3.33019V7.98334H76.3408ZM80.1139 7.98334V5.06372L81.6186 4.72158V7.98334H80.1139ZM80.1139 5.06372C80.1139 4.67596 80.0683 4.37563 79.9771 4.16274C79.8935 3.94985 79.7719 3.79779 79.6124 3.70655C79.4528 3.60771 79.2666 3.55829 79.0538 3.55829C78.6662 3.55069 78.3661 3.66854 78.1533 3.91184C77.9481 4.15514 77.8455 4.51629 77.8455 4.99529H77.3439C77.3439 4.38704 77.4313 3.87382 77.6061 3.45565C77.7885 3.02987 78.0393 2.70673 78.3585 2.48624C78.6776 2.25815 79.0538 2.1441 79.487 2.1441C80.1785 2.1441 80.7067 2.35699 81.0714 2.78276C81.4438 3.20094 81.6262 3.84721 81.6186 4.72158L80.1139 5.06372Z" fill="black"></path><path d="M85.2817 8.1202C84.651 8.1202 84.1722 7.96433 83.8455 7.6526C83.5263 7.34087 83.3667 6.89609 83.3667 6.31824V0.50181H84.8714V5.98751C84.8714 6.23081 84.9246 6.41709 85.031 6.54634C85.1374 6.66799 85.2931 6.72882 85.4983 6.72882C85.5743 6.72882 85.6579 6.71361 85.7491 6.6832C85.8403 6.64518 85.9353 6.59196 86.0341 6.52353L86.5584 7.6526C86.376 7.78946 86.1709 7.89971 85.9429 7.98334C85.7225 8.07458 85.5021 8.1202 85.2817 8.1202ZM82.4434 3.55829V2.28095H86.2963V3.55829H82.4434Z" fill="black"></path><path d="M35.5143 21.5265V13.5432H37.076V21.5265H35.5143ZM36.5175 21.5265V20.1009H40.5869V21.5265H36.5175Z" fill="black"></path><path d="M44.897 21.5265L44.8628 18.6411C44.8628 18.299 44.8248 18.01 44.7488 17.7743C44.6804 17.531 44.5664 17.3486 44.4068 17.2269C44.2548 17.0977 44.0496 17.033 43.7913 17.033C43.5633 17.033 43.3581 17.0824 43.1757 17.1813C42.9933 17.2801 42.8375 17.4398 42.7084 17.6603L41.3633 17.2041C41.4697 16.9608 41.6217 16.7251 41.8192 16.497C42.0244 16.2613 42.2904 16.0674 42.6172 15.9154C42.9515 15.7633 43.3543 15.6873 43.8255 15.6873C44.3954 15.6873 44.8704 15.7899 45.2503 15.9952C45.6303 16.2005 45.9153 16.5046 46.1053 16.9076C46.2952 17.3029 46.3902 17.7895 46.3902 18.3674V21.5265H44.897ZM43.3581 21.6634C42.6742 21.6634 42.1422 21.5113 41.7622 21.2072C41.3899 20.903 41.2037 20.4735 41.2037 19.9184C41.2037 19.3102 41.4051 18.854 41.8078 18.5499C42.2182 18.2381 42.792 18.0823 43.5291 18.0823H45.1705L45.1933 19.1999H44.0534C43.5595 19.1999 43.2175 19.2608 43.0275 19.3824C42.8375 19.4965 42.7426 19.6599 42.7426 19.8728C42.7426 20.0401 42.8185 20.1731 42.9705 20.272C43.1225 20.3632 43.3353 20.4088 43.6089 20.4088C43.8521 20.4088 44.0648 20.3518 44.2472 20.2378C44.4372 20.1161 44.5854 19.9641 44.6918 19.7816C44.7982 19.5915 44.8514 19.3976 44.8514 19.1999H45.2731C45.2731 19.9755 45.1211 20.5799 44.8172 21.0133C44.5208 21.4467 44.0344 21.6634 43.3581 21.6634Z" fill="black"></path><path d="M48.7272 23.9443C48.522 23.9443 48.294 23.9025 48.0433 23.8189C47.8001 23.7428 47.5835 23.6516 47.3935 23.5452L47.9521 22.3248C48.0813 22.3933 48.1991 22.4465 48.3054 22.4845C48.4194 22.5301 48.5182 22.5529 48.6018 22.5529C48.7614 22.5529 48.902 22.5073 49.0236 22.4161C49.1452 22.3324 49.244 22.207 49.32 22.0397L49.9925 20.4545L51.8049 15.8241H53.4578L50.8702 22.0169C50.7106 22.3971 50.5434 22.7316 50.3687 23.0205C50.1939 23.3171 49.9773 23.5452 49.7189 23.7048C49.4681 23.8645 49.1376 23.9443 48.7272 23.9443ZM49.5935 21.5265L46.9832 15.8241H48.636L50.5396 20.4545L51.0298 21.5265H49.5935Z" fill="black"></path><path d="M56.6443 21.6634C56.082 21.6634 55.5842 21.5379 55.1511 21.287C54.7179 21.0285 54.3759 20.6749 54.1252 20.2264C53.882 19.7778 53.7604 19.2608 53.7604 18.6753C53.7604 18.0899 53.8858 17.5729 54.1366 17.1243C54.3949 16.6757 54.7445 16.3259 55.1853 16.075C55.6336 15.8165 56.1466 15.6873 56.7241 15.6873C57.2181 15.6873 57.6741 15.8203 58.092 16.0864C58.5176 16.3449 58.8596 16.7289 59.1179 17.2383C59.3763 17.7401 59.5055 18.3522 59.5055 19.0745H57.978C57.9856 18.5727 57.9324 18.1735 57.8184 17.877C57.7121 17.5729 57.5601 17.3562 57.3625 17.2269C57.1649 17.0901 56.9331 17.0216 56.6671 17.0216C56.386 17.0216 56.1466 17.0824 55.949 17.2041C55.759 17.3258 55.6146 17.512 55.5158 17.7629C55.4171 18.0062 55.3677 18.3256 55.3677 18.7209C55.3677 19.0631 55.4323 19.3482 55.5614 19.5763C55.6906 19.8044 55.8654 19.9793 56.0858 20.1009C56.3062 20.215 56.5456 20.272 56.8039 20.272C57.1003 20.272 57.3397 20.2074 57.5221 20.0781C57.7121 19.9488 57.8564 19.7816 57.9552 19.5763L59.3687 20.1237C59.2015 20.4431 58.9925 20.7206 58.7418 20.9563C58.491 21.1844 58.1908 21.3592 57.8412 21.4809C57.4917 21.6025 57.0927 21.6634 56.6443 21.6634ZM54.7407 19.0745L54.7521 17.8998H58.7646V19.0745H54.7407Z" fill="black"></path><path d="M61.5381 18.5271C61.5381 17.9112 61.6559 17.4018 61.8914 16.9988C62.1346 16.5958 62.4424 16.2955 62.8148 16.0978C63.1947 15.9002 63.5899 15.8013 64.0003 15.8013V17.2611C63.6507 17.2611 63.3201 17.3029 63.0086 17.3866C62.7046 17.4702 62.4576 17.6071 62.2676 17.7971C62.0776 17.9872 61.9826 18.2305 61.9826 18.5271H61.5381ZM60.478 21.5265V15.8241H61.9826V21.5265H60.478Z" fill="black"></path></svg>