<svg width="30" height="24" viewBox="0 0 30 24" fill="none" xmlns="http://www.w3.org/2000/svg" data-element="Logo" data-source-file="index.tsx"><path d="M1.02295 17.489L13.2844 22.9774L25.5812 17.4822L13.3198 11.987L1.02295 17.489Z" fill="#F4DCC6"></path><path fill-rule="evenodd" clip-rule="evenodd" d="M12.902 11.0535C13.1683 10.9344 13.4727 10.9345 13.7388 11.0538L26.0002 16.549C26.3683 16.7139 26.605 17.0796 26.6048 17.4827C26.6046 17.8858 26.3675 18.2512 25.9992 18.4157L13.7024 23.9109C13.4364 24.0298 13.1323 24.0297 12.8664 23.9107L0.605007 18.4223C0.23689 18.2575 -3.06553e-05 17.892 2.97509e-09 17.4889C3.06612e-05 17.0858 0.237007 16.7203 0.605149 16.5555L12.902 11.0535ZM3.5271 17.4891L13.285 21.8569L23.0777 17.4808L13.3198 13.1076L3.5271 17.4891Z" fill="#F4DCC6"></path><path d="M1.02295 12.0347L13.2844 17.5231L25.5812 12.0279L13.3198 6.53271L1.02295 12.0347Z" fill="#EDC8A7"></path><path fill-rule="evenodd" clip-rule="evenodd" d="M12.902 5.59934C13.1683 5.48022 13.4727 5.48032 13.7388 5.5996L26.0002 11.0948C26.3683 11.2597 26.605 11.6254 26.6048 12.0285C26.6046 12.4316 26.3675 12.797 25.9992 12.9615L13.7024 18.4567C13.4364 18.5756 13.1323 18.5755 12.8664 18.4565L0.605007 12.9681C0.23689 12.8033 -3.06553e-05 12.4378 2.97509e-09 12.0347C3.06612e-05 11.6316 0.237007 11.2661 0.605149 11.1014L12.902 5.59934ZM3.5271 12.035L13.285 16.4027L23.0777 12.0266L13.3198 7.65339L3.5271 12.035Z" fill="#EDC8A7"></path><path d="M1.02295 6.58045L13.2844 12.0688L25.5812 6.57363L13.3198 1.07843L1.02295 6.58045Z" fill="#E2A56C"></path><path fill-rule="evenodd" clip-rule="evenodd" d="M12.902 0.144995C13.1683 0.0258789 13.4727 0.0259725 13.7388 0.145252L26.0002 5.64045C26.3683 5.80539 26.605 6.17103 26.6048 6.57415C26.6046 6.97727 26.3675 7.34266 25.9992 7.5072L13.7024 13.0024C13.4364 13.1213 13.1323 13.1212 12.8664 13.0021L0.605007 7.51377C0.23689 7.34899 -3.06553e-05 6.98346 2.97509e-09 6.58034C3.06612e-05 6.17722 0.237007 5.81173 0.605149 5.64701L12.902 0.144995ZM3.5271 6.58061L13.285 10.9484L23.0777 6.57225L13.3198 2.19905L3.5271 6.58061Z" fill="#E2A56C"></path></svg>