<svg width="20" height="20" viewBox="0 0 20 20" fill="none" xmlns="http://www.w3.org/2000/svg"><g clip-path="url(#clip0_3397_30665)"><path d="M15.625 1.66675C15.1277 1.66675 14.6508 1.86429 14.2992 2.21592C13.9475 2.56755 13.75 3.04447 13.75 3.54175C13.75 4.03903 13.9475 4.51594 14.2992 4.86757C14.6508 5.2192 15.1277 5.41675 15.625 5.41675C16.1223 5.41675 16.5992 5.2192 16.9508 4.86757C17.3025 4.51594 17.5 4.03903 17.5 3.54175C17.5 3.04447 17.3025 2.56755 16.9508 2.21592C16.5992 1.86429 16.1223 1.66675 15.625 1.66675V1.66675Z" stroke="black" stroke-width="1.25" stroke-linecap="round" stroke-linejoin="round"></path><path d="M15.625 8.125C15.1277 8.125 14.6508 8.32254 14.2992 8.67417C13.9475 9.02581 13.75 9.50272 13.75 10C13.75 10.4973 13.9475 10.9742 14.2992 11.3258C14.6508 11.6775 15.1277 11.875 15.625 11.875C16.1223 11.875 16.5992 11.6775 16.9508 11.3258C17.3025 10.9742 17.5 10.4973 17.5 10C17.5 9.50272 17.3025 9.02581 16.9508 8.67417C16.5992 8.32254 16.1223 8.125 15.625 8.125V8.125Z" stroke="black" stroke-width="1.25" stroke-linecap="round" stroke-linejoin="round"></path><path d="M4.375 8.125C3.87772 8.125 3.40081 8.32254 3.04917 8.67417C2.69754 9.02581 2.5 9.50272 2.5 10C2.5 10.4973 2.69754 10.9742 3.04917 11.3258C3.40081 11.6775 3.87772 11.875 4.375 11.875C4.87228 11.875 5.34919 11.6775 5.70082 11.3258C6.05246 10.9742 6.25 10.4973 6.25 10C6.25 9.50272 6.05246 9.02581 5.70082 8.67417C5.34919 8.32254 4.87228 8.125 4.375 8.125V8.125Z" stroke="black" stroke-width="1.25" stroke-linecap="round" stroke-linejoin="round"></path><path d="M15.625 14.5835C15.3788 14.5835 15.135 14.632 14.9075 14.7262C14.68 14.8204 14.4733 14.9586 14.2992 15.1327C14.1251 15.3068 13.987 15.5135 13.8927 15.741C13.7985 15.9685 13.75 16.2123 13.75 16.4585C13.75 16.7047 13.7985 16.9485 13.8927 17.176C13.987 17.4035 14.1251 17.6102 14.2992 17.7843C14.4733 17.9584 14.68 18.0965 14.9075 18.1908C15.135 18.285 15.3788 18.3335 15.625 18.3335C15.8712 18.3335 16.115 18.285 16.3425 18.1908C16.57 18.0965 16.7767 17.9584 16.9508 17.7843C17.1249 17.6102 17.263 17.4035 17.3573 17.176C17.4515 16.9485 17.5 16.7047 17.5 16.4585C17.5 16.2123 17.4515 15.9685 17.3573 15.741C17.263 15.5135 17.1249 15.3068 16.9508 15.1327C16.7767 14.9586 16.57 14.8204 16.3425 14.7262C16.115 14.632 15.8712 14.5835 15.625 14.5835V14.5835Z" stroke="black" stroke-width="1.25" stroke-linecap="round" stroke-linejoin="round"></path><path d="M13.75 3.54175H11.6667C10.7417 3.54175 10 4.28341 10 5.20841V14.7917C10 15.7084 10.7417 16.4584 11.6667 16.4584H13.75" stroke="black" stroke-width="1.25" stroke-linecap="round" stroke-linejoin="round"></path><path d="M13.75 10H6.25" stroke="black" stroke-width="1.25" stroke-linecap="round" stroke-linejoin="round"></path></g><defs><clipPath id="clip0_3397_30665"><rect width="20" height="20" fill="white"></rect></clipPath></defs></svg>