<svg width="20" height="20" viewBox="0 0 20 20" fill="none" xmlns="http://www.w3.org/2000/svg"><path d="M14.025 17.5L14.0167 17.4992C14.9333 17.4992 15.6833 16.7492 15.6833 15.8325C15.6833 15.8242 15.6833 15.8242 15.6833 15.8242" stroke="black" stroke-width="1.25" stroke-linecap="round" stroke-linejoin="round"></path><path d="M2.49995 15.825V15.8167C2.49161 16.7333 3.24161 17.4833 4.15828 17.4833V17.475" stroke="black" stroke-width="1.25" stroke-linecap="round" stroke-linejoin="round"></path><path d="M4.16667 4.29166C3.24167 4.28333 2.49167 5.03333 2.49167 5.95C2.48334 5.95 2.48334 5.95 2.48334 5.95" stroke="black" stroke-width="1.25" stroke-linecap="round" stroke-linejoin="round"></path><path d="M15.6917 5.96666V5.95832C15.6917 5.03332 14.9417 4.29166 14.025 4.29166C14.0167 4.29166 14.0167 4.29166 14.0167 4.29166" stroke="black" stroke-width="1.25" stroke-linecap="round" stroke-linejoin="round"></path><path d="M2.5 13.1083V15.825" stroke="black" stroke-width="1.25" stroke-linecap="round" stroke-linejoin="round"></path><path d="M2.5 8.82499V5.96666" stroke="black" stroke-width="1.25" stroke-linecap="round" stroke-linejoin="round"></path><path d="M11.2166 17.4917V17.4833C11.5166 16.3083 10.8083 15.1167 9.64164 14.8167C8.46664 14.5083 7.27498 15.2167 6.97498 16.3833C6.88331 16.7333 6.87497 17.1083 6.96664 17.4667" stroke="black" stroke-width="1.25" stroke-linecap="round" stroke-linejoin="round"></path><path d="M14.0249 17.5H11.2166" stroke="black" stroke-width="1.25" stroke-linecap="round" stroke-linejoin="round"></path><path d="M6.98329 17.4917H4.16663" stroke="black" stroke-width="1.25" stroke-linecap="round" stroke-linejoin="round"></path><path d="M15.6917 13.1083V15.8333" stroke="black" stroke-width="1.25" stroke-linecap="round" stroke-linejoin="round"></path><path d="M15.6917 8.82499V5.97499" stroke="black" stroke-width="1.25" stroke-linecap="round" stroke-linejoin="round"></path><path d="M15.6916 8.82499H15.6833C16.8583 8.56666 18.025 9.32499 18.275 10.5083C18.525 11.6833 17.7666 12.85 16.5833 13.1C16.2833 13.1583 15.9666 13.1583 15.6666 13.1" stroke="black" stroke-width="1.25" stroke-linecap="round" stroke-linejoin="round"></path><path d="M7.02496 4.29999H4.16663" stroke="black" stroke-width="1.25" stroke-linecap="round" stroke-linejoin="round"></path><path d="M14.025 4.30832H11.3083" stroke="black" stroke-width="1.25" stroke-linecap="round" stroke-linejoin="round"></path><path d="M7.025 4.29999C6.76667 3.11666 7.525 1.94999 8.70834 1.69999C9.88334 1.44166 11.05 2.19999 11.3 3.38333C11.3583 3.67499 11.3583 3.99166 11.3 4.29166" stroke="black" stroke-width="1.25" stroke-linecap="round" stroke-linejoin="round"></path><path d="M2.49998 8.82499H2.49164C3.66664 8.56666 4.83331 9.32499 5.08331 10.5083C5.33331 11.6833 4.57498 12.85 3.39164 13.1C3.09164 13.1583 2.77498 13.1583 2.47498 13.1" stroke="black" stroke-width="1.25" stroke-linecap="round" stroke-linejoin="round"></path></svg>