<svg width="16" height="17" viewBox="0 0 16 17" fill="none" xmlns="http://www.w3.org/2000/svg" stroke="black" class="DocsSection_icon__EME6v" data-element="Icon" data-source-file="DocsCard.tsx"><path d="M0.5 3.5V13.5C0.5 14.163 0.763392 14.7989 1.23223 15.2678C1.70107 15.7366 2.33696 16 3 16H13C13.663 16 14.2989 15.7366 14.7678 15.2678C15.2366 14.7989 15.5 14.163 15.5 13.5V3.5C15.5 2.83696 15.2366 2.20107 14.7678 1.73223C14.2989 1.26339 13.663 1 13 1H3C2.33696 1 1.70107 1.26339 1.23223 1.73223C0.763392 2.20107 0.5 2.83696 0.5 3.5V3.5Z" stroke-linecap="round" stroke-linejoin="round"></path><path d="M10.5 16V6.05005" stroke-linecap="round" stroke-linejoin="round"></path><path d="M15.5 6.05005H7.16667C6.72464 6.05005 6.30072 6.22564 5.98816 6.5382C5.6756 6.85076 5.5 7.27469 5.5 7.71672V16" stroke-linecap="round" stroke-linejoin="round"></path><path d="M15.5 11.05H5.5" stroke-linecap="round" stroke-linejoin="round"></path></svg>